<mxfile host="65bd71144e">
    <diagram id="r8C-oMCVH0s_g_TXh1sK" name="Page-1">
        <mxGraphModel dx="1501" dy="1603" grid="1" gridSize="10" guides="1" tooltips="1" connect="1" arrows="1" fold="1" page="1" pageScale="1" pageWidth="850" pageHeight="1100" math="0" shadow="0">
            <root>
                <mxCell id="0"/>
                <mxCell id="1" parent="0"/>
                <mxCell id="5" style="edgeStyle=none;html=1;entryX=0.5;entryY=0;entryDx=0;entryDy=0;" edge="1" parent="1" source="2" target="4">
                    <mxGeometry relative="1" as="geometry"/>
                </mxCell>
                <mxCell id="6" style="edgeStyle=none;html=1;entryX=0.5;entryY=0;entryDx=0;entryDy=0;" edge="1" parent="1" source="2" target="3">
                    <mxGeometry relative="1" as="geometry">
                        <Array as="points">
                            <mxPoint x="160" y="60"/>
                        </Array>
                    </mxGeometry>
                </mxCell>
                <mxCell id="17" style="edgeStyle=none;html=1;entryX=0;entryY=0.5;entryDx=0;entryDy=0;" edge="1" parent="1" source="2" target="16">
                    <mxGeometry relative="1" as="geometry"/>
                </mxCell>
                <mxCell id="2" value="INDEX.HTML" style="rounded=0;whiteSpace=wrap;html=1;" vertex="1" parent="1">
                    <mxGeometry x="270" y="40" width="120" height="40" as="geometry"/>
                </mxCell>
                <mxCell id="3" value="AMAZINGEVENTS.JS" style="rounded=0;whiteSpace=wrap;html=1;" vertex="1" parent="1">
                    <mxGeometry x="100" y="200" width="120" height="60" as="geometry"/>
                </mxCell>
                <mxCell id="7" style="edgeStyle=none;html=1;entryX=1;entryY=0.5;entryDx=0;entryDy=0;" edge="1" parent="1" source="4" target="3">
                    <mxGeometry relative="1" as="geometry"/>
                </mxCell>
                <mxCell id="9" style="edgeStyle=none;html=1;entryX=0.5;entryY=0;entryDx=0;entryDy=0;" edge="1" parent="1" source="4" target="8">
                    <mxGeometry relative="1" as="geometry">
                        <Array as="points">
                            <mxPoint x="470" y="230"/>
                        </Array>
                    </mxGeometry>
                </mxCell>
                <mxCell id="13" style="edgeStyle=none;html=1;entryX=0;entryY=0.5;entryDx=0;entryDy=0;" edge="1" parent="1" source="4" target="10">
                    <mxGeometry relative="1" as="geometry"/>
                </mxCell>
                <mxCell id="19" style="edgeStyle=none;html=1;entryX=0;entryY=0.5;entryDx=0;entryDy=0;exitX=0.668;exitY=-0.022;exitDx=0;exitDy=0;exitPerimeter=0;" edge="1" parent="1" source="4" target="18">
                    <mxGeometry relative="1" as="geometry">
                        <mxPoint x="350" y="190" as="sourcePoint"/>
                        <Array as="points">
                            <mxPoint x="350" y="150"/>
                        </Array>
                    </mxGeometry>
                </mxCell>
                <mxCell id="4" value="INDEX.JS" style="rounded=0;whiteSpace=wrap;html=1;" vertex="1" parent="1">
                    <mxGeometry x="270" y="200" width="120" height="60" as="geometry"/>
                </mxCell>
                <mxCell id="14" style="edgeStyle=none;html=1;exitX=1;exitY=0.5;exitDx=0;exitDy=0;entryX=0;entryY=0.5;entryDx=0;entryDy=0;" edge="1" parent="1" source="8" target="11">
                    <mxGeometry relative="1" as="geometry"/>
                </mxCell>
                <mxCell id="15" style="edgeStyle=none;html=1;exitX=1;exitY=0.5;exitDx=0;exitDy=0;entryX=0;entryY=0.5;entryDx=0;entryDy=0;" edge="1" parent="1" source="8" target="12">
                    <mxGeometry relative="1" as="geometry"/>
                </mxCell>
                <mxCell id="8" value="Con un ciclo for separa los eventos pasados y futuros en funcion de la fecha base" style="rounded=0;whiteSpace=wrap;html=1;" vertex="1" parent="1">
                    <mxGeometry x="410" y="300" width="120" height="80" as="geometry"/>
                </mxCell>
                <mxCell id="10" value="Todos los Eventos" style="rounded=0;whiteSpace=wrap;html=1;fillColor=#3333FF;" vertex="1" parent="1">
                    <mxGeometry x="580" y="200" width="120" height="60" as="geometry"/>
                </mxCell>
                <mxCell id="11" value="Eventos Pasados" style="rounded=0;whiteSpace=wrap;html=1;fillColor=#6666FF;" vertex="1" parent="1">
                    <mxGeometry x="580" y="270" width="120" height="60" as="geometry"/>
                </mxCell>
                <mxCell id="12" value="Eventos Futuros" style="rounded=0;whiteSpace=wrap;html=1;fillColor=#9999FF;" vertex="1" parent="1">
                    <mxGeometry x="580" y="340" width="120" height="60" as="geometry"/>
                </mxCell>
                <mxCell id="16" value="NavBar" style="rounded=0;whiteSpace=wrap;html=1;" vertex="1" parent="1">
                    <mxGeometry x="810" y="40" width="120" height="40" as="geometry"/>
                </mxCell>
                <mxCell id="21" style="edgeStyle=none;html=1;entryX=0.5;entryY=1;entryDx=0;entryDy=0;" edge="1" parent="1" source="18" target="16">
                    <mxGeometry relative="1" as="geometry"/>
                </mxCell>
                <mxCell id="27" style="edgeStyle=none;html=1;entryX=0.5;entryY=0;entryDx=0;entryDy=0;" edge="1" parent="1" source="18" target="25">
                    <mxGeometry relative="1" as="geometry"/>
                </mxCell>
                <mxCell id="18" value="Con un evento clic, se captura el boton del NavBar seleccionado" style="rounded=0;whiteSpace=wrap;html=1;" vertex="1" parent="1">
                    <mxGeometry x="810" y="120" width="120" height="60" as="geometry"/>
                </mxCell>
                <mxCell id="22" value="" style="rounded=0;whiteSpace=wrap;html=1;fillColor=#B3B3B3;" vertex="1" parent="1">
                    <mxGeometry x="780" y="270" width="180" height="300" as="geometry"/>
                </mxCell>
                <mxCell id="25" value="&lt;b style=&quot;background-color: rgb(26, 26, 26);&quot;&gt;Funcion Navegacion&lt;/b&gt;" style="text;html=1;strokeColor=none;fillColor=none;align=center;verticalAlign=middle;whiteSpace=wrap;rounded=0;" vertex="1" parent="1">
                    <mxGeometry x="780" y="270" width="180" height="30" as="geometry"/>
                </mxCell>
                <mxCell id="26" value="" style="rounded=0;whiteSpace=wrap;html=1;" vertex="1" parent="1">
                    <mxGeometry x="790" y="300" width="160" height="250" as="geometry"/>
                </mxCell>
                <mxCell id="28" value="Switch" style="text;html=1;strokeColor=none;fillColor=none;align=center;verticalAlign=middle;whiteSpace=wrap;rounded=0;" vertex="1" parent="1">
                    <mxGeometry x="790" y="300" width="160" height="30" as="geometry"/>
                </mxCell>
                <mxCell id="30" value="Recibe el ID del boton al que se hizo clic" style="text;html=1;strokeColor=none;fillColor=none;align=center;verticalAlign=middle;whiteSpace=wrap;rounded=0;" vertex="1" parent="1">
                    <mxGeometry x="790" y="325" width="160" height="30" as="geometry"/>
                </mxCell>
                <mxCell id="35" style="edgeStyle=none;html=1;entryX=1;entryY=0.5;entryDx=0;entryDy=0;strokeColor=#9999FF;" edge="1" parent="1" source="32" target="12">
                    <mxGeometry relative="1" as="geometry">
                        <Array as="points">
                            <mxPoint x="730" y="515"/>
                            <mxPoint x="730" y="370"/>
                        </Array>
                    </mxGeometry>
                </mxCell>
                <mxCell id="40" style="edgeStyle=none;html=1;entryX=0.005;entryY=0.815;entryDx=0;entryDy=0;entryPerimeter=0;" edge="1" parent="1" source="32" target="38">
                    <mxGeometry relative="1" as="geometry"/>
                </mxCell>
                <mxCell id="32" value="Case &quot;upcoming&quot;" style="rounded=0;whiteSpace=wrap;html=1;fillColor=#9999FF;" vertex="1" parent="1">
                    <mxGeometry x="810" y="490" width="120" height="50" as="geometry"/>
                </mxCell>
                <mxCell id="41" style="edgeStyle=none;html=1;" edge="1" parent="1" source="33">
                    <mxGeometry relative="1" as="geometry">
                        <mxPoint x="1020" y="451" as="targetPoint"/>
                    </mxGeometry>
                </mxCell>
                <mxCell id="51" style="edgeStyle=none;html=1;entryX=1;entryY=0.5;entryDx=0;entryDy=0;shadow=1;strokeColor=#6666FF;fillColor=#6666FF;" edge="1" parent="1" source="33" target="11">
                    <mxGeometry relative="1" as="geometry">
                        <Array as="points">
                            <mxPoint x="740" y="450"/>
                            <mxPoint x="740" y="300"/>
                        </Array>
                    </mxGeometry>
                </mxCell>
                <mxCell id="33" value="Case &quot;past&quot;" style="rounded=0;whiteSpace=wrap;html=1;fillColor=#6666FF;" vertex="1" parent="1">
                    <mxGeometry x="810" y="426" width="120" height="50" as="geometry"/>
                </mxCell>
                <mxCell id="37" style="edgeStyle=none;html=1;entryX=1;entryY=0.5;entryDx=0;entryDy=0;exitX=0;exitY=0.5;exitDx=0;exitDy=0;fillColor=#3333FF;" edge="1" parent="1" source="34" target="10">
                    <mxGeometry relative="1" as="geometry">
                        <Array as="points">
                            <mxPoint x="760" y="385"/>
                            <mxPoint x="760" y="230"/>
                            <mxPoint x="720" y="230"/>
                        </Array>
                    </mxGeometry>
                </mxCell>
                <mxCell id="42" style="edgeStyle=none;html=1;entryX=-0.008;entryY=0.391;entryDx=0;entryDy=0;entryPerimeter=0;" edge="1" parent="1" source="34" target="38">
                    <mxGeometry relative="1" as="geometry"/>
                </mxCell>
                <mxCell id="34" value="Default" style="rounded=0;whiteSpace=wrap;html=1;fillColor=#3333FF;" vertex="1" parent="1">
                    <mxGeometry x="810" y="360" width="120" height="50" as="geometry"/>
                </mxCell>
                <mxCell id="38" value="" style="rounded=0;whiteSpace=wrap;html=1;fillColor=#B3B3B3;" vertex="1" parent="1">
                    <mxGeometry x="1020" y="270" width="180" height="300" as="geometry"/>
                </mxCell>
                <mxCell id="49" style="edgeStyle=none;html=1;entryX=1;entryY=0.5;entryDx=0;entryDy=0;" edge="1" parent="1" source="39" target="48">
                    <mxGeometry relative="1" as="geometry">
                        <Array as="points">
                            <mxPoint x="1110" y="-20"/>
                        </Array>
                    </mxGeometry>
                </mxCell>
                <mxCell id="39" value="&lt;b&gt;Funcion Display&lt;/b&gt;" style="text;html=1;strokeColor=none;fillColor=#1A1A1A;align=center;verticalAlign=middle;whiteSpace=wrap;rounded=0;" vertex="1" parent="1">
                    <mxGeometry x="1020" y="270" width="180" height="30" as="geometry"/>
                </mxCell>
                <mxCell id="46" value="Crea un template string tomando como parametro el array de eventos que recibe" style="text;html=1;strokeColor=none;fillColor=#1A1A1A;align=center;verticalAlign=middle;whiteSpace=wrap;rounded=0;" vertex="1" parent="1">
                    <mxGeometry x="1035" y="400" width="150" height="65" as="geometry"/>
                </mxCell>
                <mxCell id="50" style="edgeStyle=none;html=1;entryX=1;entryY=0.25;entryDx=0;entryDy=0;" edge="1" parent="1" source="48" target="2">
                    <mxGeometry relative="1" as="geometry">
                        <Array as="points">
                            <mxPoint x="760" y="-20"/>
                            <mxPoint x="760" y="50"/>
                        </Array>
                    </mxGeometry>
                </mxCell>
                <mxCell id="48" value="ID cartasDeEventos" style="rounded=0;whiteSpace=wrap;html=1;" vertex="1" parent="1">
                    <mxGeometry x="810" y="-40" width="120" height="40" as="geometry"/>
                </mxCell>
            </root>
        </mxGraphModel>
    </diagram>
</mxfile>